<svg width="149" height="32" viewBox="0 0 149 32" fill="none" xmlns="http://www.w3.org/2000/svg">
<path d="M143.916 19.4908H145.913V19.9448H145.096V22.0331H144.642V19.9448H143.825L143.916 19.4908Z" fill="#231815"/>
<path d="M146.276 19.4908H146.821L147.638 21.1252L148.455 19.4908H149V22.0331H148.546V20.2172L147.729 21.7607H147.456L146.639 20.2172V22.0331H146.276V19.4908Z" fill="#231815"/>
<path d="M141.192 19.6724C141.192 20.5804 141.192 21.3067 141.192 22.2147C137.469 22.2147 133.746 22.2147 130.115 22.2147C127.391 22.2147 127.391 22.2147 127.391 24.8478C127.391 28.7519 127.391 28.7519 131.204 28.7519C133.202 28.7519 135.199 28.6611 137.106 28.7519C138.559 28.8427 139.013 28.298 138.831 26.936C138.74 26.1189 138.831 25.2109 138.831 24.2122C139.739 24.2122 140.556 24.2122 141.646 24.2122C141.646 25.7557 141.736 27.2084 141.646 28.7519C141.555 30.2954 140.556 31.2034 139.103 31.2942C135.108 31.385 131.204 31.385 127.209 31.2942C125.393 31.2942 124.485 30.1139 124.485 28.298C124.485 26.4821 124.485 24.5754 124.485 22.7595C124.485 20.762 125.393 19.7632 127.3 19.6724C131.931 19.5816 136.47 19.6724 141.192 19.6724Z" fill="#231815"/>
<path d="M0.459543 0.423828H3.27419V9.14014C3.27419 9.32173 3.45578 9.50333 3.63737 9.50333H14.6236C14.8052 9.50333 14.9867 9.32173 14.9867 9.14014V0.423828H17.8922C17.8922 3.60165 17.983 6.68868 17.8922 9.77571C17.8922 11.2284 16.8934 12.1364 15.5315 12.1364C11.1734 12.2272 7.26917 12.2272 2.82022 12.1364C1.3675 12.1364 0.459543 11.1376 0.459543 9.59411C0.368748 6.59788 0.459543 3.51086 0.459543 0.423828Z" fill="#231815"/>
<path d="M63.8345 19.6724H66.6491V28.2071C66.6491 28.3887 66.8307 28.5703 67.0123 28.5703H79.7236V31.2033C79.7236 31.2033 67.1938 31.2033 67.103 31.2033C64.5608 31.2033 63.7437 30.2046 63.7437 27.9347C63.8344 25.4832 63.8345 22.3962 63.8345 19.6724Z" fill="#231815"/>
<path d="M100.425 19.7633C101.333 19.7633 102.059 19.7633 103.058 19.7633C103.058 23.5767 103.058 27.3901 103.058 31.2943C102.241 31.2943 101.424 31.2943 100.425 31.2943C100.425 27.3901 100.425 23.6675 100.425 19.7633Z" fill="#231815"/>
<path d="M57.7512 6.05321C57.7512 6.05321 58.2051 5.32685 58.2051 4.96367C58.7499 2.78459 57.9327 0.514716 55.7537 0.423921C50.8507 0.242331 45.9478 0.333121 40.8633 0.333121C40.8633 4.2373 40.8633 8.0507 40.8633 12.0457C45.4938 12.0457 50.0336 12.0457 54.5733 12.0457C58.1143 12.0457 58.6591 9.41262 58.1143 6.96116C58.1143 6.68877 57.7512 6.05321 57.7512 6.05321ZM54.7549 9.41262L43.9503 9.50342V7.32433C43.9503 7.32433 52.7574 7.32433 54.7549 7.32433C54.9365 7.32433 55.1181 7.50593 55.1181 7.68752V9.04944C55.1181 9.23103 54.9365 9.41262 54.7549 9.41262ZM54.7549 5.14526L43.9503 5.23606V3.05697C43.9503 3.05697 52.7574 3.05697 54.7549 3.05697C54.9365 3.05697 55.1181 3.23857 55.1181 3.42016V4.78208C55.1181 4.96367 54.9365 5.14526 54.7549 5.14526Z" fill="#231815"/>
<path d="M73.5494 2.6029C72.6415 0.787002 71.2795 0.423828 69.4636 0.423828C67.557 0.423828 66.2858 0.787002 65.3779 2.6029C65.3779 2.6029 61.9277 8.77696 59.9302 12.1364H63.4712L68.3741 3.23846C68.4649 3.14767 68.5557 3.05688 68.7373 3.05688H70.3716C70.4624 3.05688 70.644 3.14767 70.7348 3.23846L75.6377 12.1364C75.6377 12.1364 78.2708 12.1364 79.1787 12.1364C76.9996 8.77696 73.4586 2.6029 73.5494 2.6029Z" fill="#231815"/>
<path d="M97.7009 0.42393H94.7047C94.7047 3.32937 94.7047 6.23481 94.7047 9.50343C94.7047 9.50343 94.2507 9.59422 93.6151 9.04945C92.0716 7.59673 88.6214 3.42017 88.1674 2.96619C88.1674 2.96619 88.1674 2.87539 88.0766 2.87539C87.8043 2.51221 87.5319 2.23982 87.4411 2.14903C86.3516 1.05949 85.716 0.51472 83.7185 0.33313H81.0854C81.0854 3.87413 81.0854 8.50469 81.0854 12.0457H84.0817C84.0817 9.14025 84.0817 6.23481 84.0817 2.96619C84.0817 2.96619 84.5357 2.8754 85.1712 3.42017C86.7147 4.87289 90.1649 9.04945 90.6189 9.50343C90.6189 9.50343 90.6189 9.59422 90.7097 9.59422C90.9821 9.95739 91.2545 10.2298 91.3453 10.3206C92.4348 11.4101 93.0704 11.9549 95.0679 12.1365H97.7009C97.7009 8.59547 97.7009 3.96493 97.7009 0.42393Z" fill="#231815"/>
<path d="M17.8012 21.9424C17.8012 20.5805 16.8025 19.7633 15.259 19.7633C13.6247 19.7633 11.8996 19.7633 10.2652 19.7633C6.90583 19.7633 3.54643 19.7633 0.187012 19.7633C0.187012 23.6675 0.187012 27.3901 0.187012 31.2943C3.45563 31.2943 6.54265 31.2943 9.62968 31.2943C11.5364 31.2943 13.4431 31.2943 15.259 31.2943C16.7117 31.2943 17.7104 30.3863 17.8012 29.1152C17.8012 28.5704 17.8012 22.4871 17.8012 21.9424ZM14.9866 23.4859V27.5717V28.3888C14.9866 28.5704 14.805 28.752 14.6234 28.752H3.36484C3.18325 28.752 3.00165 28.5704 3.00165 28.3888V22.7595C3.00165 22.5779 3.18325 22.3964 3.36484 22.3964H14.805C14.9866 22.3964 14.9866 22.5779 14.9866 22.7595V23.4859Z" fill="#231815"/>
<path d="M122.125 19.6723H119.129C119.129 22.5778 119.129 25.4832 119.129 28.7518C119.129 28.7518 118.675 28.8426 118.039 28.2979C116.495 26.8451 113.045 22.6686 112.591 22.2146C112.591 22.2146 112.591 22.2146 112.5 22.1238C112.228 21.7606 111.956 21.4882 111.865 21.3974C110.775 20.3079 110.14 19.7631 108.142 19.5815H105.509C105.509 23.1225 105.509 27.7531 105.509 31.2941H108.506C108.506 28.3887 108.506 25.4832 108.506 22.2146C108.506 22.2146 108.959 22.1238 109.595 22.6686C111.139 24.1213 114.589 28.2979 115.043 28.7518C115.043 28.7518 115.043 28.7518 115.134 28.8426C115.406 29.2058 115.678 29.4782 115.769 29.569C116.859 30.6585 117.494 31.2033 119.492 31.3849H122.125C122.125 27.8439 122.125 23.2133 122.125 19.6723Z" fill="#231815"/>
<path d="M40.0462 19.6724C39.5923 22.1238 38.8659 25.3016 38.3211 27.7531C38.2303 28.2979 38.0487 28.6611 37.5948 28.6611C37.05 28.6611 37.05 28.2979 36.7776 27.7531C36.7776 27.7531 34.9617 22.941 34.0538 20.8527C33.6906 20.0355 33.1458 19.6724 32.3287 19.6724C31.9655 19.6724 31.6023 19.6724 31.3299 19.6724H31.2391H31.1483C30.8759 19.6724 30.5128 19.6724 30.1496 19.6724C29.3324 19.6724 28.7876 20.0355 28.4245 20.8527C27.5165 22.941 25.7006 27.7531 25.7006 27.7531C25.519 28.2979 25.4282 28.6611 24.8835 28.6611C24.4295 28.6611 24.2479 28.2979 24.1571 27.7531C23.6123 25.2109 22.9768 22.1238 22.432 19.6724C21.3425 19.6724 20.4345 19.6724 19.345 19.6724C20.0713 22.8502 20.7977 25.8464 21.4333 28.7519C21.7056 30.023 22.0688 31.2941 23.7031 31.2033C24.4295 31.2033 25.4282 31.2033 26.1546 31.2033C27.0625 31.2033 27.5165 30.5678 27.9705 29.2966L30.6036 22.3054C30.8759 21.5791 30.9667 21.4883 31.1483 21.4883C31.3299 21.4883 31.5115 21.5791 31.6931 22.3054L34.3261 29.2966C34.7801 30.5678 35.2341 31.2033 36.142 31.2033C36.8684 31.2033 37.7763 31.2033 38.5935 31.2033C40.2278 31.2033 40.591 30.023 40.8634 28.7519C41.4989 25.8464 42.2253 22.7594 42.9517 19.6724C42.0437 19.6724 41.1358 19.6724 40.0462 19.6724Z" fill="#231815"/>
<path d="M60.3842 24.4845H47.4005C47.1281 24.4845 46.9465 24.3029 46.9465 24.1213V22.7594C46.9465 22.5778 47.1281 22.3962 47.4005 22.3962C49.5796 22.3962 58.0235 22.3962 60.3842 22.3962H61.0198C61.0198 21.4883 61.0198 20.6711 61.0198 19.7632C56.026 19.7632 51.1231 19.6724 46.1294 19.854C44.0411 19.9448 43.4963 21.8515 43.4963 24.2121C43.4963 24.5753 43.4963 26.1188 43.4963 26.482C43.4963 28.9335 43.6779 31.4757 47.2189 31.4757C51.7587 31.4757 56.2984 31.4757 60.929 31.4757C60.929 30.5678 60.929 29.6598 60.929 28.8427H47.3097C47.0373 28.8427 46.8557 28.6611 46.8557 28.4795V26.936C46.8557 26.7544 47.0373 26.5728 47.3097 26.5728C49.7612 26.5728 60.929 26.5728 60.929 26.5728C60.929 25.8464 60.929 25.1201 60.929 24.4845H60.3842Z" fill="#231815"/>
<path d="M81.8117 19.6724H84.6264V28.2071C84.6264 28.3887 84.808 28.5703 84.9896 28.5703H97.7009V31.2033C97.7009 31.2033 85.1712 31.2033 85.0804 31.2033C82.5381 31.2033 81.7209 30.2046 81.7209 27.9347C81.8117 25.4832 81.8117 22.3962 81.8117 19.6724Z" fill="#231815"/>
<path d="M33.3273 7.59666H34.6893C37.1407 7.50586 37.4131 6.23474 37.4131 4.05566C37.4131 2.05817 36.8683 0.605443 34.5985 0.514648H22.7043H19.9805V12.2272H22.7043V7.68746H29.3324L34.2353 12.2272H38.0487C38.0487 12.1364 33.3273 7.59666 33.3273 7.59666ZM22.7951 5.1452V2.96612C23.5215 2.96612 31.7838 2.96612 33.6905 2.96612C33.8721 2.96612 34.0537 3.14771 34.0537 3.3293V4.69122C34.0537 4.87281 33.8721 5.0544 33.6905 5.0544L22.7951 5.1452Z" fill="#231815"/>
</svg>
