<svg width="164" height="36" viewBox="0 0 164 36" fill="none" xmlns="http://www.w3.org/2000/svg">
<path d="M158.4 21.9004H160.6V22.4004H159.7V24.7004H159.2V22.4004H158.3L158.4 21.9004Z" fill="white"/>
<path d="M161 21.9004H161.6L162.5 23.7004L163.4 21.9004H164V24.7004H163.5V22.7004L162.6 24.4004H162.3L161.4 22.7004V24.7004H161V21.9004Z" fill="white"/>
<path d="M155.4 22.1001C155.4 23.1001 155.4 23.9001 155.4 24.9001C151.3 24.9001 147.2 24.9001 143.2 24.9001C140.2 24.9001 140.2 24.9001 140.2 27.8001C140.2 32.1001 140.2 32.1001 144.4 32.1001C146.6 32.1001 148.8 32.0001 150.9 32.1001C152.5 32.2001 153 31.6001 152.8 30.1001C152.7 29.2001 152.8 28.2001 152.8 27.1001C153.8 27.1001 154.7 27.1001 155.9 27.1001C155.9 28.8001 156 30.4001 155.9 32.1001C155.8 33.8001 154.7 34.8001 153.1 34.9001C148.7 35.0001 144.4 35.0001 140 34.9001C138 34.9001 137 33.6001 137 31.6001C137 29.6001 137 27.5001 137 25.5001C137 23.3001 138 22.2001 140.1 22.1001C145.2 22.0001 150.2 22.1001 155.4 22.1001Z" fill="white"/>
<path d="M0.400157 0.900391H3.50016V10.5004C3.50016 10.7004 3.70016 10.9004 3.90016 10.9004H16.0002C16.2002 10.9004 16.4002 10.7004 16.4002 10.5004V0.900391H19.6002C19.6002 4.40039 19.7002 7.80039 19.6002 11.2004C19.6002 12.8004 18.5002 13.8004 17.0002 13.8004C12.2002 13.9004 7.90016 13.9004 3.00016 13.8004C1.40016 13.8004 0.400157 12.7004 0.400157 11.0004C0.300157 7.70038 0.400157 4.30039 0.400157 0.900391Z" fill="white"/>
<path d="M70.2001 22.1004H73.3001V31.5004C73.3001 31.7004 73.5001 31.9004 73.7001 31.9004H87.7001V34.8004C87.7001 34.8004 73.9001 34.8004 73.8001 34.8004C71.0001 34.8004 70.1001 33.7004 70.1001 31.2004C70.2001 28.5004 70.2001 25.1004 70.2001 22.1004Z" fill="white"/>
<path d="M110.5 22.2004C111.5 22.2004 112.3 22.2004 113.4 22.2004C113.4 26.4004 113.4 30.6004 113.4 34.9004C112.5 34.9004 111.6 34.9004 110.5 34.9004C110.5 30.6004 110.5 26.5004 110.5 22.2004Z" fill="white"/>
<path d="M63.5002 7.10039C63.5002 7.10039 64.0002 6.30039 64.0002 5.90039C64.6002 3.50039 63.7001 1.00039 61.3001 0.900394C55.9001 0.700394 50.5001 0.800388 44.9001 0.800388C44.9001 5.10039 44.9001 9.3004 44.9001 13.7004C50.0001 13.7004 55.0002 13.7004 60.0002 13.7004C63.9002 13.7004 64.5001 10.8004 63.9001 8.10039C63.9001 7.80039 63.5002 7.10039 63.5002 7.10039ZM60.2001 10.8004L48.3002 10.9004V8.50038C48.3002 8.50038 58.0001 8.50038 60.2001 8.50038C60.4001 8.50038 60.6002 8.70039 60.6002 8.90039V10.4004C60.6002 10.6004 60.4001 10.8004 60.2001 10.8004ZM60.2001 6.10039L48.3002 6.2004V3.80039C48.3002 3.80039 58.0001 3.80039 60.2001 3.80039C60.4001 3.80039 60.6002 4.0004 60.6002 4.2004V5.7004C60.6002 5.9004 60.4001 6.10039 60.2001 6.10039Z" fill="white"/>
<path d="M80.9001 3.30038C79.9001 1.30038 78.4001 0.900391 76.4001 0.900391C74.3001 0.900391 72.9001 1.30038 71.9001 3.30038C71.9001 3.30038 68.1001 10.1004 65.9001 13.8004H69.8001L75.2002 4.00038C75.3002 3.90038 75.4002 3.80038 75.6002 3.80038H77.4001C77.5001 3.80038 77.7001 3.90038 77.8001 4.00038L83.2002 13.8004C83.2002 13.8004 86.1002 13.8004 87.1002 13.8004C84.7002 10.1004 80.8001 3.30038 80.9001 3.30038Z" fill="white"/>
<path d="M107.5 0.900787H104.2C104.2 4.10079 104.2 7.30079 104.2 10.9008C104.2 10.9008 103.7 11.0008 103 10.4008C101.3 8.80079 97.5002 4.20079 97.0002 3.70079C97.0002 3.70079 97.0002 3.60078 96.9002 3.60078C96.6002 3.20078 96.3002 2.90078 96.2002 2.80078C95.0002 1.60078 94.3002 1.00078 92.1002 0.800781H89.2002C89.2002 4.70078 89.2002 9.80079 89.2002 13.7008H92.5002C92.5002 10.5008 92.5002 7.30079 92.5002 3.70079C92.5002 3.70079 93.0002 3.60079 93.7002 4.20079C95.4002 5.80079 99.2002 10.4008 99.7002 10.9008C99.7002 10.9008 99.7002 11.0008 99.8002 11.0008C100.1 11.4008 100.4 11.7008 100.5 11.8008C101.7 13.0008 102.4 13.6008 104.6 13.8008H107.5C107.5 9.90078 107.5 4.80079 107.5 0.900787Z" fill="white"/>
<path d="M19.5001 24.6004C19.5001 23.1004 18.4001 22.2004 16.7001 22.2004C14.9001 22.2004 13.0001 22.2004 11.2001 22.2004C7.50009 22.2004 3.8001 22.2004 0.100098 22.2004C0.100098 26.5004 0.100098 30.6004 0.100098 34.9004C3.7001 34.9004 7.10009 34.9004 10.5001 34.9004C12.6001 34.9004 14.7001 34.9004 16.7001 34.9004C18.3001 34.9004 19.4001 33.9004 19.5001 32.5004C19.5001 31.9004 19.5001 25.2004 19.5001 24.6004ZM16.4001 26.3004V30.8004V31.7004C16.4001 31.9004 16.2001 32.1004 16.0001 32.1004H3.6001C3.4001 32.1004 3.20009 31.9004 3.20009 31.7004V25.5004C3.20009 25.3004 3.4001 25.1004 3.6001 25.1004H16.2001C16.4001 25.1004 16.4001 25.3004 16.4001 25.5004V26.3004Z" fill="white"/>
<path d="M134.4 22.1H131.1C131.1 25.3 131.1 28.5 131.1 32.1C131.1 32.1 130.6 32.2 129.9 31.6C128.2 30 124.4 25.4 123.9 24.9C123.9 24.9 123.9 24.9 123.8 24.8C123.5 24.4 123.2 24.1 123.1 24C121.9 22.8 121.2 22.2 119 22H116.1C116.1 25.9 116.1 31 116.1 34.9H119.4C119.4 31.7 119.4 28.5 119.4 24.9C119.4 24.9 119.9 24.8 120.6 25.4C122.3 27 126.1 31.6 126.6 32.1C126.6 32.1 126.6 32.1 126.7 32.2C127 32.6 127.3 32.9 127.4 33C128.6 34.2 129.3 34.8 131.5 35H134.4C134.4 31.1 134.4 26 134.4 22.1Z" fill="white"/>
<path d="M44.0002 22.1004C43.5002 24.8004 42.7002 28.3004 42.1002 31.0004C42.0002 31.6004 41.8002 32.0004 41.3002 32.0004C40.7002 32.0004 40.7002 31.6004 40.4002 31.0004C40.4002 31.0004 38.4002 25.7004 37.4002 23.4004C37.0002 22.5004 36.4002 22.1004 35.5002 22.1004C35.1002 22.1004 34.7002 22.1004 34.4002 22.1004H34.3002H34.2002C33.9002 22.1004 33.5002 22.1004 33.1002 22.1004C32.2002 22.1004 31.6002 22.5004 31.2002 23.4004C30.2002 25.7004 28.2002 31.0004 28.2002 31.0004C28.0002 31.6004 27.9002 32.0004 27.3002 32.0004C26.8002 32.0004 26.6002 31.6004 26.5002 31.0004C25.9002 28.2004 25.2002 24.8004 24.6002 22.1004C23.4002 22.1004 22.4002 22.1004 21.2002 22.1004C22.0002 25.6004 22.8002 28.9004 23.5002 32.1004C23.8002 33.5004 24.2002 34.9004 26.0002 34.8004C26.8002 34.8004 27.9002 34.8004 28.7002 34.8004C29.7002 34.8004 30.2002 34.1004 30.7002 32.7004L33.6002 25.0004C33.9002 24.2004 34.0002 24.1004 34.2002 24.1004C34.4002 24.1004 34.6002 24.2004 34.8002 25.0004L37.7002 32.7004C38.2002 34.1004 38.7002 34.8004 39.7002 34.8004C40.5002 34.8004 41.5002 34.8004 42.4002 34.8004C44.2002 34.8004 44.6002 33.5004 44.9002 32.1004C45.6002 28.9004 46.4002 25.5004 47.2002 22.1004C46.2002 22.1004 45.2002 22.1004 44.0002 22.1004Z" fill="white"/>
<path d="M66.3998 27.4008H52.0998C51.7998 27.4008 51.5998 27.2008 51.5998 27.0008V25.5008C51.5998 25.3008 51.7998 25.1008 52.0998 25.1008C54.4998 25.1008 63.7998 25.1008 66.3998 25.1008H67.0998C67.0998 24.1008 67.0998 23.2008 67.0998 22.2008C61.5998 22.2008 56.1998 22.1008 50.6998 22.3008C48.3998 22.4008 47.7998 24.5008 47.7998 27.1008C47.7998 27.5008 47.7998 29.2008 47.7998 29.6008C47.7998 32.3008 47.9998 35.1008 51.8998 35.1008C56.8998 35.1008 61.8998 35.1008 66.9998 35.1008C66.9998 34.1008 66.9998 33.1008 66.9998 32.2008H51.9998C51.6998 32.2008 51.4998 32.0008 51.4998 31.8008V30.1008C51.4998 29.9008 51.6998 29.7008 51.9998 29.7008C54.6998 29.7008 66.9998 29.7008 66.9998 29.7008C66.9998 28.9008 66.9998 28.1008 66.9998 27.4008H66.3998Z" fill="white"/>
<path d="M90.0002 22.1004H93.1002V31.5004C93.1002 31.7004 93.3002 31.9004 93.5002 31.9004H107.5V34.8004C107.5 34.8004 93.7002 34.8004 93.6002 34.8004C90.8002 34.8004 89.9001 33.7004 89.9001 31.2004C90.0001 28.5004 90.0002 25.1004 90.0002 22.1004Z" fill="white"/>
<path d="M36.6004 8.8H38.1004C40.8004 8.7 41.1004 7.30001 41.1004 4.90001C41.1004 2.70001 40.5004 1.1 38.0004 1H24.9004H21.9004V13.9H24.9004V8.90001H32.2004L37.6004 13.9H41.8004C41.8004 13.8 36.6004 8.8 36.6004 8.8ZM25.0004 6.10001V3.70001C25.8004 3.70001 34.9004 3.70001 37.0004 3.70001C37.2004 3.70001 37.4004 3.90001 37.4004 4.10001V5.60001C37.4004 5.80001 37.2004 6 37.0004 6L25.0004 6.10001Z" fill="white"/>
</svg>
